<svg width="39" height="32" viewBox="0 0 39 32" fill="none" xmlns="http://www.w3.org/2000/svg">
<path d="M12.375 15.75C10.9883 15.75 9.875 14.6367 9.875 13.25C9.875 11.8828 10.9883 10.75 12.375 10.75C13.7422 10.75 14.875 11.8828 14.875 13.25C14.875 14.6367 13.7422 15.75 12.375 15.75ZM13.3516 16.6875C15.2266 16.6875 16.75 18.2109 16.75 20.0859C16.75 20.457 16.4375 20.75 16.0664 20.75H8.66406C8.29297 20.75 8 20.457 8 20.0859C8 18.2109 9.50391 16.6875 11.3789 16.6875H13.3516ZM30.0703 11.5508C30.5 11.9805 30.5 12.6641 30.0703 13.0938L29.4844 13.6797L27.5703 11.7656L28.1562 11.1797C28.5859 10.75 29.2695 10.75 29.6992 11.1797L30.0703 11.5508ZM23.8594 15.4766L27.1211 12.2148L29.0352 14.1289L25.7734 17.3906C25.6562 17.5078 25.5 17.6055 25.3438 17.6641L23.6055 18.2305C23.4297 18.2891 23.2539 18.25 23.1367 18.1133C23 17.9961 22.9609 17.8008 23.0195 17.6445L23.5859 15.9062C23.6445 15.75 23.7422 15.5938 23.8594 15.4766ZM24.25 12C24.582 12 24.875 12.293 24.875 12.625C24.875 12.9766 24.582 13.25 24.25 13.25H22.375C22.0234 13.25 21.75 13.543 21.75 13.875V18.875C21.75 19.2266 22.0234 19.5 22.375 19.5H27.375C27.707 19.5 28 19.2266 28 18.875V17C28 16.668 28.2734 16.375 28.625 16.375C28.957 16.375 29.25 16.668 29.25 17V18.875C29.25 19.9102 28.4102 20.75 27.375 20.75H22.375C21.3203 20.75 20.5 19.9102 20.5 18.875V13.875C20.5 12.8398 21.3203 12 22.375 12H24.25Z" fill="#8392AB"/>
</svg>
