<svg width="9" height="11" viewBox="0 0 9 11" fill="none" xmlns="http://www.w3.org/2000/svg">
<path d="M2.63672 1.10156C2.73438 0.886719 2.94922 0.75 3.18359 0.75H5.54688C5.78125 0.75 5.99609 0.886719 6.09375 1.10156L6.25 1.375H8.125C8.45703 1.375 8.75 1.66797 8.75 2C8.75 2.35156 8.45703 2.625 8.125 2.625H0.625C0.273438 2.625 0 2.35156 0 2C0 1.66797 0.273438 1.375 0.625 1.375H2.5L2.63672 1.10156ZM7.69531 9.87109C7.67578 10.3789 7.26562 10.75 6.75781 10.75H1.97266C1.46484 10.75 1.05469 10.3789 1.03516 9.87109L0.605469 3.25H8.125L7.69531 9.87109Z" fill="#8392AB"/>
</svg>
